<svg xmlns="http://www.w3.org/2000/svg" viewBox="0 0 512 512">
  <circle cx="256" cy="256" r="240" fill="#f8f9fa" stroke="#006B3F" stroke-width="16"/>
  <path d="M335.7 272.4L271.7 336.4C268.9 339.2 265.1 340.7 261.1 340.7C257.1 340.7 254.1 339.2 251.3 336.4L176.3 261.4C170.7 255.8 170.7 246.2 176.3 240.6C181.9 235 191.5 235 197.1 240.6L256 299.5L320 235.5C325.6 229.9 335.2 229.9 340.8 235.5C346.4 241.1 346.4 250.7 340.8 256.3L335.7 272.4z" fill="#FF8B7B"/>
  <path d="M256 128C238.3 128 224 142.3 224 160V224C224 241.7 238.3 256 256 256C273.7 256 288 241.7 288 224V160C288 142.3 273.7 128 256 128z" fill="#FF8B7B"/>
  <path d="M256 0C114.6 0 0 114.6 0 256C0 397.4 114.6 512 256 512C397.4 512 512 397.4 512 256C512 114.6 397.4 0 256 0zM256 464C141.1 464 48 370.9 48 256C48 141.1 141.1 48 256 48C370.9 48 464 141.1 464 256C464 370.9 370.9 464 256 464z" fill="#006B3F"/>
</svg>